<?xml version="1.0" encoding="UTF-8"?>
<!DOCTYPE svg PUBLIC "-//W3C//DTD SVG 1.1//EN" "http://www.w3.org/Graphics/SVG/1.1/DTD/svg11.dtd">
<!-- Creator: CorelDRAW X7 -->
<svg xmlns="http://www.w3.org/2000/svg" xml:space="preserve" width="32" height="32" version="1.1" style="shape-rendering:geometricPrecision; text-rendering:geometricPrecision; image-rendering:optimizeQuality; fill-rule:evenodd; clip-rule:evenodd"
viewBox="0 0 385 406"
 xmlns:xlink="http://www.w3.org/1999/xlink">
 <defs>
  <style type="text/css">
   <![CDATA[
    .fil0 {fill:#fff;fill-rule:nonzero}
   ]]>
  </style>
 </defs>
 <g id="Layer_x0020_1">
  <metadata id="CorelCorpID_0Corel-Layer"/>
  <path class="fil0" d="M115 288c0,-8 6,-14 14,-14 7,0 13,6 13,14 0,2 1,4 2,5 2,1 3,2 5,2l86 0c2,0 4,-1 5,-2 2,-1 2,-3 2,-5 0,-8 6,-14 14,-14 7,0 13,6 13,14 0,9 -4,18 -10,24 -6,6 -15,10 -24,10l-86 0c-9,0 -17,-4 -24,-10 -6,-6 -10,-15 -10,-24zm238 -98c1,0 2,-1 3,-2 1,-1 2,-2 2,-3l0 -153c0,-1 -1,-3 -2,-4 -1,-1 -2,-1 -3,-1l-321 0c-1,0 -3,0 -4,1 -1,1 -1,3 -1,4l0 153c0,1 0,2 1,3 1,1 3,2 4,2l321 0zm-353 -158c0,-9 4,-17 9,-23 6,-5 14,-9 23,-9l321 0c8,0 16,4 22,9 6,6 10,14 10,23 0,116 0,226 0,342 0,9 -4,17 -10,23 -6,6 -14,9 -22,9l-321 0c-9,0 -17,-3 -23,-9 -5,-6 -9,-14 -9,-23 0,-116 0,-226 0,-342zm115 66c0,-7 6,-13 14,-13 7,0 13,6 13,13 0,2 1,4 2,5 2,1 3,2 5,2l86 0c2,0 4,-1 5,-2 2,-1 2,-3 2,-5 0,-7 6,-13 14,-13 7,0 13,6 13,13 0,9 -4,18 -10,24 -6,6 -15,10 -24,10l-86 0c-9,0 -17,-4 -24,-10 -6,-6 -10,-15 -10,-24zm-83 282l321 0c1,0 2,-1 3,-2 1,-1 2,-2 2,-4l0 -152c0,-2 -1,-3 -2,-4 -1,-1 -2,-1 -3,-1l-321 0c-1,0 -3,0 -4,1 -1,1 -1,2 -1,4l0 152c0,2 0,3 1,4 1,1 3,2 4,2z"/>
 </g>
</svg>
