<?xml version="1.0" encoding="UTF-8"?>
<!DOCTYPE svg PUBLIC "-//W3C//DTD SVG 1.1//EN" "http://www.w3.org/Graphics/SVG/1.1/DTD/svg11.dtd">
<!-- Creator: CorelDRAW X7 -->
<svg xmlns="http://www.w3.org/2000/svg" xml:space="preserve" width="32" height="32" version="1.1" style="shape-rendering:geometricPrecision; text-rendering:geometricPrecision; image-rendering:optimizeQuality; fill-rule:evenodd; clip-rule:evenodd"
viewBox="0 0 406 308"
 xmlns:xlink="http://www.w3.org/1999/xlink">
 <defs>
  <style type="text/css">
   <![CDATA[
    .fil0 {fill:#fff;fill-rule:nonzero}
   ]]>
  </style>
 </defs>
 <g id="Layer_x0020_1">
  <metadata id="CorelCorpID_0Corel-Layer"/>
  <path class="fil0" d="M81 283l294 0c2,0 3,0 5,-2 1,-1 2,-3 2,-5l0 -65 -308 0 0 65c0,2 1,4 2,5 1,2 3,2 5,2zm277 -223c1,6 -3,13 -10,14 -7,1 -13,-4 -14,-10l-6 -34 0 0c0,-1 -1,-3 -3,-4 -1,-1 -3,-2 -5,-1l0 0 -290 49 0 0 0 0c-1,0 -3,1 -4,3 -1,1 -2,3 -1,5l0 0 0 0 12 72c1,7 -3,13 -10,14 -7,1 -13,-3 -14,-10l-13 -72 0 0c-1,-9 1,-17 6,-24 5,-6 12,-11 20,-13l0 0 289 -48c1,-1 2,-1 2,-1 8,-1 16,1 23,6 6,4 11,11 12,19 1,1 1,1 1,2l5 33zm24 126l0 -21 -308 0 0 21 308 0zm0 -46l0 -21c0,-2 -1,-3 -2,-5 -2,-1 -3,-2 -5,-2l-294 0c-2,0 -4,1 -5,2 -1,2 -2,3 -2,5l0 21 308 0zm-7 168l-294 0c-9,0 -17,-4 -23,-9 -5,-6 -9,-14 -9,-23l0 -157c0,-9 4,-16 9,-22 6,-6 14,-9 23,-9l294 0c9,0 16,3 22,9 6,6 9,13 9,22l0 157c0,9 -3,17 -9,23 -6,5 -13,9 -22,9z"/>
 </g>
</svg>
