<?xml version="1.0" encoding="UTF-8"?>
<!DOCTYPE svg PUBLIC "-//W3C//DTD SVG 1.1//EN" "http://www.w3.org/Graphics/SVG/1.1/DTD/svg11.dtd">
<!-- Creator: CorelDRAW X7 -->
<svg xmlns="http://www.w3.org/2000/svg" xml:space="preserve" width="32" height="32" version="1.1" style="shape-rendering:geometricPrecision; text-rendering:geometricPrecision; image-rendering:optimizeQuality; fill-rule:evenodd; clip-rule:evenodd"
viewBox="0 0 406 379"
 xmlns:xlink="http://www.w3.org/1999/xlink">
 <defs>
  <style type="text/css">
   <![CDATA[
    .fil0 {fill:#fff;fill-rule:nonzero;}
   ]]>
  </style>
 </defs>
 <g id="Layer_x0020_1">
  <metadata id="CorelCorpID_0Corel-Layer"/>
  <path class="fil0" d="M378 43c0,-4 -1,-8 -4,-11 -3,-2 -6,-4 -10,-4l-119 0c-4,0 -8,2 -10,4 -3,3 -5,7 -5,11l0 2c0,12 -4,22 -12,30 -8,8 -18,13 -30,13l-145 0c-4,0 -8,1 -11,4 -2,2 -4,6 -4,10l0 234c0,4 2,8 4,10 3,3 7,5 11,5l321 0c4,0 7,-2 10,-5 3,-2 4,-6 4,-10l0 -293zm-189 104c0,-7 6,-14 14,-14 8,0 14,7 14,14l0 58 58 0c8,0 14,6 14,14 0,8 -6,14 -14,14l-58 0 0 58c0,8 -6,14 -14,14 -8,0 -14,-6 -14,-14l0 -58 -58 0c-7,0 -14,-6 -14,-14 0,-8 7,-14 14,-14l58 0 0 -58zm-15 -132c8,0 14,6 14,14 0,8 -6,14 -14,14l-144 0c-8,0 -14,-6 -14,-14 0,-8 6,-14 14,-14l144 0zm14 44c4,0 7,-1 10,-4 3,-3 4,-6 4,-10l0 -2c0,-12 5,-23 13,-30 8,-8 18,-13 30,-13l119 0c11,0 22,5 30,13 8,7 12,18 12,30l0 293c0,12 -4,23 -12,30 -8,8 -19,13 -30,13l-321 0c-12,0 -23,-5 -30,-13 -8,-7 -13,-18 -13,-30l0 -234c0,-12 5,-22 13,-30 7,-8 18,-13 30,-13l145 0z"/>
 </g>
</svg>
